<svg xmlns="http://www.w3.org/2000/svg" width="1072.27734375" height="473.6656494140625" viewBox="-892.8126831054688 -1081.6834716796875 1072.27734375 473.6656494140625"><title>Neo4j Graph Visualization</title><desc>Created using Neo4j (http://www.neo4j.com/)</desc><g class="layer relationships"><g class="relationship" transform="translate(-521.1483094300365 -920.2085344405804) rotate(476.2488935467473)"><path class="b-outline" fill="#A5ABB6" stroke="none" d="M 25 0.5 L 129.35449098144088 0.5 L 129.35449098144088 -0.5 L 25 -0.5 Z M 172.26074098144088 0.5 L 276.61523196288175 0.5 L 276.61523196288175 3.5 L 283.61523196288175 0 L 276.61523196288175 -3.5 L 276.61523196288175 -0.5 L 172.26074098144088 -0.5 Z"/><text text-anchor="middle" pointer-events="none" font-size="8px" fill="#000000" x="150.80761598144088" y="3" transform="rotate(180 150.80761598144088 0)" font-family="Helvetica Neue, Helvetica, Arial, sans-serif">SOLD_BY</text></g><g class="relationship" transform="translate(-382.00037190791204 -956.8361957387087) rotate(512.8923740082014)"><path class="b-outline" fill="#A5ABB6" stroke="none" d="M 25 0.5 L 245.68166656051852 0.5 L 245.68166656051852 -0.5 L 25 -0.5 Z M 288.5879165605185 0.5 L 509.26958312103704 0.5 L 509.26958312103704 3.5 L 516.269583121037 0 L 509.26958312103704 -3.5 L 509.26958312103704 -0.5 L 288.5879165605185 -0.5 Z"/><text text-anchor="middle" pointer-events="none" font-size="8px" fill="#000000" x="267.1347915605185" y="3" transform="rotate(180 267.1347915605185 0)" font-family="Helvetica Neue, Helvetica, Arial, sans-serif">SOLD_BY</text></g><g class="relationship" transform="translate(-521.1483094300365 -920.2085344405804) rotate(508.4970722729169)"><path class="b-outline" fill="#A5ABB6" stroke="none" d="M 25 0.5 L 175.99628976426496 0.5 L 175.99628976426496 -0.5 L 25 -0.5 Z M 218.90253976426496 0.5 L 369.8988295285299 0.5 L 369.8988295285299 3.5 L 376.8988295285299 0 L 369.8988295285299 -3.5 L 369.8988295285299 -0.5 L 218.90253976426496 -0.5 Z"/><text text-anchor="middle" pointer-events="none" font-size="8px" fill="#000000" x="197.44941476426496" y="3" transform="rotate(180 197.44941476426496 0)" font-family="Helvetica Neue, Helvetica, Arial, sans-serif">SOLD_BY</text></g><g class="relationship" transform="translate(-382.00037190791204 -956.8361957387087) rotate(491.3303611126925)"><path class="b-outline" fill="#A5ABB6" stroke="none" d="M 25 0.5 L 183.73839251376555 0.5 L 183.73839251376555 -0.5 L 25 -0.5 Z M 226.64464251376555 0.5 L 385.3830350275311 0.5 L 385.3830350275311 3.5 L 392.3830350275311 0 L 385.3830350275311 -3.5 L 385.3830350275311 -0.5 L 226.64464251376555 -0.5 Z"/><text text-anchor="middle" pointer-events="none" font-size="8px" fill="#000000" x="205.19151751376555" y="3" transform="rotate(180 205.19151751376555 0)" font-family="Helvetica Neue, Helvetica, Arial, sans-serif">SOLD_BY</text></g><g class="relationship" transform="translate(-382.00037190791204 -956.8361957387087) rotate(358.009916432404)"><path class="b-outline" fill="#A5ABB6" stroke="none" d="M 25 0.5 L 172.9352408835532 0.5 L 172.9352408835532 -0.5 L 25 -0.5 Z M 207.3805533835532 0.5 L 355.3157942671064 0.5 L 355.3157942671064 3.5 L 362.3157942671064 0 L 355.3157942671064 -3.5 L 355.3157942671064 -0.5 L 207.3805533835532 -0.5 Z"/><text text-anchor="middle" pointer-events="none" font-size="8px" fill="#000000" x="190.1578971335532" y="3" font-family="Helvetica Neue, Helvetica, Arial, sans-serif">ORIGIN</text></g><g class="relationship" transform="translate(-521.1483094300365 -920.2085344405804) rotate(354.56391507068884)"><path class="b-outline" fill="#A5ABB6" stroke="none" d="M 25 0.5 L 243.58111213603064 0.5 L 243.58111213603064 -0.5 L 25 -0.5 Z M 278.02642463603064 0.5 L 496.6075367720613 0.5 L 496.6075367720613 3.5 L 503.6075367720613 0 L 496.6075367720613 -3.5 L 496.6075367720613 -0.5 L 278.02642463603064 -0.5 Z"/><text text-anchor="middle" pointer-events="none" font-size="8px" fill="#000000" x="260.80376838603064" y="3" font-family="Helvetica Neue, Helvetica, Arial, sans-serif">ORIGIN</text></g><g class="relationship" transform="translate(-521.1483094300365 -920.2085344405804) rotate(454.95266073289554)"><path class="b-outline" fill="#A5ABB6" stroke="none" d="M 24.018736134675446,6.953439040707552 L 24.277555179777966,5.987513214418485 A 437.4358631234845 437.4358631234845 0 0 0 90.71085134155561,18.38385717722656 L 90.60390209443312,19.378121658408475 A 438.4358631234845 438.4358631234845 0 0 1 24.018736134675446,6.953439040707552 Z M 178.80344143476304,19.942379215915196 L 178.70922205778626,18.94682775616934 A 437.4358631234845 437.4358631234845 0 0 0 245.2956854700155,7.401479220307361 L 244.55636750143424,4.494004552948619 L 252.20301268861613,6.160983071510791 L 246.28144276145724,11.278112110119016 L 245.54212479287597,8.370637442760275 A 438.4358631234845 438.4358631234845 0 0 1 178.80344143476304,19.942379215915196"/><text text-anchor="middle" pointer-events="none" font-size="8px" fill="#000000" x="134.69264522708673" y="24.383817124184873" transform="rotate(180 134.69264522708673 21.383817124184873)" font-family="Helvetica Neue, Helvetica, Arial, sans-serif">CLONE_OF_SPECIES</text></g><g class="relationship" transform="translate(-521.1483094300365 -920.2085344405804) rotate(273.20261713951044)"><path class="b-outline" fill="#A5ABB6" stroke="none" d="M 24.018736134675446,-6.953439040707552 L 24.277555179777966,-5.987513214418485 A 156.71143327026707 156.71143327026707 0 0 1 24.59184629932549,-6.071377754838693 L 24.33503279468028,-7.0378387337881065 A 157.71143327026707 157.71143327026707 0 0 0 24.018736134675446,-6.953439040707552 Z M 101.36616951626968,-8.038672697067682 L 101.13455212453476,-7.065865735823081 A 156.71143327026707 156.71143327026707 0 0 1 101.45091602000427,-6.990195037334939 L 100.75000754331214,-4.073222753047496 L 108.37400276279033,-5.840903972434515 L 102.38546065559379,-10.879491416384862 L 101.68455217890165,-7.96251913209742 A 157.71143327026707 157.71143327026707 0 0 0 101.36616951626968,-8.038672697067682"/><text text-anchor="middle" pointer-events="none" font-size="8px" fill="#000000" x="62.795047406731236" y="-8.814058267984592" font-family="Helvetica Neue, Helvetica, Arial, sans-serif">CLONE_OF_SPE…</text></g><g class="relationship" transform="translate(-382.00037190791204 -956.8361957387087) rotate(477.58398795778874)"><path class="b-outline" fill="#A5ABB6" stroke="none" d="M 24.018736134675446,-6.953439040707552 L 24.277555179777966,-5.987513214418485 A 584.1044871533331 584.1044871533331 0 0 1 128.46915248893612,-23.997540162194355 L 128.38871179839296,-24.99429955909261 A 585.1044871533331 585.1044871533331 0 0 0 24.018736134675446,-6.953439040707552 Z M 216.62922434635774,-25.43985747332556 L 216.55885349044144,-24.44233657497921 A 584.1044871533331 584.1044871533331 0 0 1 320.92701149487635,-7.485402440098443 L 320.1798570358226,-4.579931701248011 L 327.8309689620363,-6.226287158781396 L 321.9232174402814,-11.359363425232353 L 321.17606298122763,-8.45389268638192 A 585.1044871533331 585.1044871533331 0 0 0 216.62922434635774,-25.43985747332556"/><text text-anchor="middle" pointer-events="none" font-size="8px" fill="#000000" x="172.50308122787118" y="-23.382938575573007" transform="rotate(180 172.50308122787118 -26.382938575573007)" font-family="Helvetica Neue, Helvetica, Arial, sans-serif">CLONE_OF_SPECIES</text></g><g class="relationship" transform="translate(-382.00037190791204 -956.8361957387087) rotate(216.0386593933698)"><path class="b-outline" fill="#A5ABB6" stroke="none" d="M 24.018736134675446,-6.953439040707552 L 24.277555179777966,-5.987513214418485 A 216.1925848434981 216.1925848434981 0 0 1 34.25462092150034,-8.408489607438469 L 34.04195084930984,-9.385613673457982 A 217.1925848434981 217.1925848434981 0 0 0 24.018736134675446,-6.953439040707552 Z M 121.88055142024373,-10.323523670603436 L 121.68879423892452,-9.342081271166535 A 216.1925848434981 216.1925848434981 0 0 1 131.71528001693622,-7.1346958373242275 L 131.0008757762868,-4.220999459706594 L 138.63297227148558,-5.953368672078515 L 132.66781900446878,-11.019624340814406 L 131.95341476381935,-8.105927963196772 A 217.1925848434981 217.1925848434981 0 0 0 121.88055142024373,-10.323523670603436"/><text text-anchor="middle" pointer-events="none" font-size="8px" fill="#000000" x="77.918677452348" y="-10.841745157062917" transform="rotate(180 77.918677452348 -13.841745157062917)" font-family="Helvetica Neue, Helvetica, Arial, sans-serif">CLONE_OF_SPECIES</text></g><g class="relationship" transform="translate(-26.39564730606685 -650.4724174698163) rotate(218.54740333280756)"><path class="b-outline" fill="#A5ABB6" stroke="none" d="M 25 0.5 L 49.76492190355063 0.5 L 49.76492190355063 -0.5 L 25 -0.5 Z M 142.74148440355063 0.5 L 167.50640630710126 0.5 L 167.50640630710126 3.5 L 174.50640630710126 0 L 167.50640630710126 -3.5 L 167.50640630710126 -0.5 L 142.74148440355063 -0.5 Z"/><text text-anchor="middle" pointer-events="none" font-size="8px" fill="#000000" x="96.25320315355063" y="3" transform="rotate(180 96.25320315355063 0)" font-family="Helvetica Neue, Helvetica, Arial, sans-serif">CONTAINS_SPECIMEN</text></g><g class="relationship" transform="translate(-382.00037190791204 -956.8361957387087) rotate(454.0086309282681)"><path class="b-outline" fill="#A5ABB6" stroke="none" d="M 25 0.5 L 135.3482278496946 0.5 L 135.3482278496946 -0.5 L 25 -0.5 Z M 178.2544778496946 0.5 L 288.6027056993892 0.5 L 288.6027056993892 3.5 L 295.6027056993892 0 L 288.6027056993892 -3.5 L 288.6027056993892 -0.5 L 178.2544778496946 -0.5 Z"/><text text-anchor="middle" pointer-events="none" font-size="8px" fill="#000000" x="156.8013528496946" y="3" transform="rotate(180 156.8013528496946 0)" font-family="Helvetica Neue, Helvetica, Arial, sans-serif">HAS_SEX</text></g><g class="relationship" transform="translate(150.4646054739177 -677.2144858029594) rotate(266.8714771997728)"><path class="b-outline" fill="#A5ABB6" stroke="none" d="M 25 0.5 L 55.012626937925404 0.5 L 55.012626937925404 -0.5 L 25 -0.5 Z M 96.1415331879254 0.5 L 126.15416012585081 0.5 L 126.15416012585081 3.5 L 133.1541601258508 0 L 126.15416012585081 -3.5 L 126.15416012585081 -0.5 L 96.1415331879254 -0.5 Z"/><text text-anchor="middle" pointer-events="none" font-size="8px" fill="#000000" x="75.5770800629254" y="3" transform="rotate(180 75.5770800629254 0)" font-family="Helvetica Neue, Helvetica, Arial, sans-serif">LIVES_IN</text></g><g class="relationship" transform="translate(-513.7357434799851 -1052.683418430928) rotate(396.0386593933698)"><path class="b-outline" fill="#A5ABB6" stroke="none" d="M 24.018736134675446,-6.953439040707552 L 24.277555179777966,-5.987513214418485 A 216.1925848434981 216.1925848434981 0 0 1 50.847571799069826,-11.347811095486179 L 50.71165251317285,-12.338531009347435 A 217.1925848434981 217.1925848434981 0 0 0 24.018736134675446,-6.953439040707552 Z M 105.15159716567328,-12.919821785859682 L 105.03686358194429,-11.926425487917754 A 216.1925848434981 216.1925848434981 0 0 1 131.71528001693622,-7.1346958373242275 L 131.0008757762868,-4.220999459706594 L 138.63297227148558,-5.953368672078515 L 132.66781900446878,-11.019624340814406 L 131.95341476381935,-8.105927963196772 A 217.1925848434981 217.1925848434981 0 0 0 105.15159716567328,-12.919821785859682"/><text text-anchor="middle" pointer-events="none" font-size="8px" fill="#000000" x="77.918677452348" y="-10.841745157062917" font-family="Helvetica Neue, Helvetica, Arial, sans-serif">HAS_CLONE</text></g><g class="relationship" transform="translate(-513.7357434799851 -1052.683418430928) rotate(453.20261713951044)"><path class="b-outline" fill="#A5ABB6" stroke="none" d="M 24.018736134675446,-6.953439040707552 L 24.277555179777966,-5.987513214418485 A 156.71143327026707 156.71143327026707 0 0 1 35.82594458311487,-8.618507348095363 L 35.640817604777,-9.601221956662613 A 157.71143327026707 157.71143327026707 0 0 0 24.018736134675446,-6.953439040707552 Z M 89.99760233079724,-10.307457364885948 L 89.83806954922493,-9.32026473342853 A 156.71143327026707 156.71143327026707 0 0 1 101.45091602000427,-6.990195037334939 L 100.75000754331214,-4.073222753047496 L 108.37400276279033,-5.840903972434515 L 102.38546065559379,-10.879491416384862 L 101.68455217890165,-7.96251913209742 A 157.71143327026707 157.71143327026707 0 0 0 89.99760233079724,-10.307457364885948"/><text text-anchor="middle" pointer-events="none" font-size="8px" fill="#000000" x="62.795047406731236" y="-8.814058267984592" transform="rotate(180 62.795047406731236 -11.814058267984592)" font-family="Helvetica Neue, Helvetica, Arial, sans-serif">HAS_CLONE</text></g><g class="relationship" transform="translate(-545.0134085570712 -644.8086613211615) rotate(297.58398795778874)"><path class="b-outline" fill="#A5ABB6" stroke="none" d="M 24.018736134675446,-6.953439040707552 L 24.277555179777966,-5.987513214418485 A 584.1044871533331 584.1044871533331 0 0 1 145.31180955611492,-25.112094522998063 L 145.2602038727282,-26.110762061993 A 585.1044871533331 585.1044871533331 0 0 0 24.018736134675446,-6.953439040707552 Z M 199.74731801198283,-26.38588699301897 L 199.70579996219777,-25.38674923898202 A 584.1044871533331 584.1044871533331 0 0 1 320.92701149487635,-7.485402440098443 L 320.1798570358226,-4.579931701248011 L 327.8309689620363,-6.226287158781396 L 321.9232174402814,-11.359363425232353 L 321.17606298122763,-8.45389268638192 A 585.1044871533331 585.1044871533331 0 0 0 199.74731801198283,-26.38588699301897"/><text text-anchor="middle" pointer-events="none" font-size="8px" fill="#000000" x="172.50308122787118" y="-23.382938575573007" font-family="Helvetica Neue, Helvetica, Arial, sans-serif">HAS_CLONE</text></g><g class="relationship" transform="translate(-545.0134085570712 -644.8086613211615) rotate(274.95266073289554)"><path class="b-outline" fill="#A5ABB6" stroke="none" d="M 24.018736134675446,6.953439040707552 L 24.277555179777966,5.987513214418485 A 437.4358631234845 437.4358631234845 0 0 0 107.51995213702938,19.86460759287047 L 107.45142932498572,20.86225714267721 A 438.4358631234845 438.4358631234845 0 0 1 24.018736134675446,6.953439040707552 Z M 161.93830445392572,21.21083754691034 L 161.88255167696815,20.212392942607494 A 437.4358631234845 437.4358631234845 0 0 0 245.2956854700155,7.401479220307361 L 244.55636750143424,4.494004552948619 L 252.20301268861613,6.160983071510791 L 246.28144276145724,11.278112110119016 L 245.54212479287597,8.370637442760275 A 438.4358631234845 438.4358631234845 0 0 1 161.93830445392572,21.21083754691034"/><text text-anchor="middle" pointer-events="none" font-size="8px" fill="#000000" x="134.69264522708673" y="24.383817124184873" font-family="Helvetica Neue, Helvetica, Arial, sans-serif">HAS_CLONE</text></g><g class="relationship" transform="translate(-194.15957506682733 -784.1446393001934) rotate(202.59277461200566)"><path class="b-outline" fill="#A5ABB6" stroke="none" d="M 40 0.5 L 150.37699962321824 0.5 L 150.37699962321824 -0.5 L 40 -0.5 Z M 211.79106212321824 0.5 L 322.1680617464365 0.5 L 322.1680617464365 3.5 L 329.1680617464365 0 L 322.1680617464365 -3.5 L 322.1680617464365 -0.5 L 211.79106212321824 -0.5 Z"/><text text-anchor="middle" pointer-events="none" font-size="8px" fill="#000000" x="181.08403087321824" y="3" transform="rotate(180 181.08403087321824 0)" font-family="Helvetica Neue, Helvetica, Arial, sans-serif">INSTANCE_OF</text></g><g class="relationship" transform="translate(-194.15957506682733 -784.1446393001934) rotate(222.5938990500523)"><path class="b-outline" fill="#A5ABB6" stroke="none" d="M 40 0.5 L 100.87288353192267 0.5 L 100.87288353192267 -0.5 L 40 -0.5 Z M 162.28694603192267 0.5 L 223.15982956384534 0.5 L 223.15982956384534 3.5 L 230.15982956384534 0 L 223.15982956384534 -3.5 L 223.15982956384534 -0.5 L 162.28694603192267 -0.5 Z"/><text text-anchor="middle" pointer-events="none" font-size="8px" fill="#000000" x="131.57991478192267" y="3" transform="rotate(180 131.57991478192267 0)" font-family="Helvetica Neue, Helvetica, Arial, sans-serif">INSTANCE_OF</text></g><g class="relationship" transform="translate(150.4646054739177 -677.2144858029594) rotate(531.4017514872417)"><path class="b-outline" fill="#A5ABB6" stroke="none" d="M 25 0.5 L 34.779043972981555 0.5 L 34.779043972981555 -0.5 L 25 -0.5 Z M 137.09154397298155 0.5 L 146.8705879459631 0.5 L 146.8705879459631 3.5 L 153.8705879459631 0 L 146.8705879459631 -3.5 L 146.8705879459631 -0.5 L 137.09154397298155 -0.5 Z"/><text text-anchor="middle" pointer-events="none" font-size="8px" fill="#000000" x="85.93529397298155" y="3" transform="rotate(180 85.93529397298155 0)" font-family="Helvetica Neue, Helvetica, Arial, sans-serif">CONTAINS_COLLECTION</text></g></g><g class="layer nodes"><g class="node" aria-label="graph-node-6" transform="translate(150.4646054739177,-677.2144858029594)"><circle class="b-outline" cx="0" cy="0" r="25" fill="#FFC454" stroke="#d7a013" stroke-width="2px"/><text class="caption" text-anchor="middle" pointer-events="none" x="0" y="5" font-size="10px" fill="#2A2C34" font-family="Helvetica Neue, Helvetica, Arial, sans-serif"> User</text></g><g class="node" aria-label="graph-node-8" transform="translate(-26.39564730606685,-650.4724174698163)"><circle class="b-outline" cx="0" cy="0" r="25" fill="#DA7194" stroke="#cc3c6c" stroke-width="2px"/><text class="caption" text-anchor="middle" pointer-events="none" x="0" y="5" font-size="10px" fill="#FFFFFF" font-family="Helvetica Neue, Helvetica, Arial, sans-serif"> Growlist</text></g><g class="node" aria-label="graph-node-10" transform="translate(141.83320070522632,-835.1329369631461)"><circle class="b-outline" cx="0" cy="0" r="25" fill="#A5ABB6" stroke="#9AA1AC" stroke-width="2px"/><text class="caption" text-anchor="middle" pointer-events="none" x="0" y="5" font-size="10px" fill="#FFFFFF" font-family="Helvetica Neue, Helvetica, Arial, sans-serif"> Country</text></g><g class="node" aria-label="graph-node-1" transform="translate(-382.00037190791204,-956.8361957387087)"><circle class="b-outline" cx="0" cy="0" r="25" fill="#57C7E3" stroke="#23b3d7" stroke-width="2px"/><text class="caption" text-anchor="middle" pointer-events="none" x="0" y="5" font-size="10px" fill="#2A2C34" font-family="Helvetica Neue, Helvetica, Arial, sans-serif"> IVClone</text></g><g class="node" aria-label="graph-node-3" transform="translate(-521.1483094300365,-920.2085344405804)"><circle class="b-outline" cx="0" cy="0" r="25" fill="#8DCC93" stroke="#5db665" stroke-width="2px"/><text class="caption" text-anchor="middle" pointer-events="none" x="0" y="5" font-size="10px" fill="#2A2C34" font-family="Helvetica Neue, Helvetica, Arial, sans-serif"> ICClone</text></g><g class="node" aria-label="graph-node-11" transform="translate(-657.6399909968081,-643.4173093943764)"><circle class="b-outline" cx="0" cy="0" r="25" fill="#A5ABB6" stroke="#9AA1AC" stroke-width="2px"/><text class="caption" text-anchor="middle" pointer-events="none" x="0" y="5" font-size="10px" fill="#FFFFFF" font-family="Helvetica Neue, Helvetica, Arial, sans-serif"> Seller</text></g><g class="node" aria-label="graph-node-9" transform="translate(-863.8126627965705,-710.1994629500911)"><circle class="b-outline" cx="0" cy="0" r="25" fill="#A5ABB6" stroke="#9AA1AC" stroke-width="2px"/><text class="caption" text-anchor="middle" pointer-events="none" x="0" y="5" font-size="10px" fill="#FFFFFF" font-family="Helvetica Neue, Helvetica, Arial, sans-serif"> Producer</text></g><g class="node" aria-label="graph-node-4" transform="translate(5.081813713258953,-970.2863282100569)"><circle class="b-outline" cx="0" cy="0" r="25" fill="#4C8EDA" stroke="#2870c2" stroke-width="2px"/><text class="caption" text-anchor="middle" pointer-events="none" x="0" y="5" font-size="10px" fill="#FFFFFF" font-family="Helvetica Neue, Helvetica, Arial, sans-serif"> Location</text></g><g class="node" aria-label="graph-node-5" transform="translate(-404.41266321974194,-637.0178346336545)"><circle class="b-outline" cx="0" cy="0" r="25" fill="#A5ABB6" stroke="#9AA1AC" stroke-width="2px"/><text class="caption" text-anchor="middle" pointer-events="none" x="0" y="5" font-size="10px" fill="#FFFFFF" font-family="Helvetica Neue, Helvetica, Arial, sans-serif"> Sex</text></g><g class="node" aria-label="graph-node-7" transform="translate(-513.7357434799851,-1052.683418430928)"><circle class="b-outline" cx="0" cy="0" r="25" fill="#ECB5C9" stroke="#da7298" stroke-width="2px"/><text class="caption" text-anchor="middle" pointer-events="none" x="0" y="5" font-size="10px" fill="#2A2C34" font-family="Helvetica Neue, Helvetica, Arial, sans-serif"> Label</text></g><g class="node" aria-label="graph-node-17" transform="translate(-545.0134085570712,-644.8086613211615)"><circle class="b-outline" cx="0" cy="0" r="25" fill="#A5ABB6" stroke="#9AA1AC" stroke-width="2px"/><text class="caption" text-anchor="middle" pointer-events="none" x="0" y="5" font-size="10px" fill="#FFFFFF" font-family="Helvetica Neue, Helvetica, Arial, sans-serif"> Species</text></g><g class="node" aria-label="graph-node-20" transform="translate(-194.15957506682733,-784.1446393001934)"><circle class="b-outline" cx="0" cy="0" r="40" fill="#8DCC93" stroke="#5db665" stroke-width="2px"/><text class="caption" text-anchor="middle" pointer-events="none" x="0" y="5" font-size="10px" fill="#2A2C34" font-family="Helvetica Neue, Helvetica, Arial, sans-serif"> Specimen</text></g></g></svg>